<svg width="419" height="501" viewBox="0 0 419 501" fill="none" xmlns="http://www.w3.org/2000/svg">
<path d="M89.8993 150.542C100.598 140.005 87.7884 126.451 87.5981 126.145C93.4637 151.24 63.7663 144.215 74.0269 128.325C84.2875 112.436 80.6481 83.8457 80.6481 83.8457C78.9236 92.5951 63.651 103 63.651 103C36.4452 118.872 36.8432 132.242 38.6427 137.796C39.6578 137.45 40.7479 137.265 41.8783 137.265C47.444 137.265 51.9543 141.775 51.9543 147.341C51.9543 151.332 49.63 154.781 46.2675 156.414C46.2501 156.425 46.2328 156.431 46.2155 156.437C45.3677 156.84 44.4622 157.129 43.5048 157.285L43.5105 157.319C34.6054 158.79 22.2685 147.007 22.2685 147.007C21.7206 159.165 29.0685 165.371 31.5658 168.035C32.7309 169.281 33.6133 169.777 33.6133 169.777C31.2544 169.875 29.2588 169.656 27.5747 169.183C12.9653 165.134 18.0985 143.829 18.0985 143.829C2.99893 156.898 8.87035 167.078 12.2156 173.607C13.5767 176.26 15.1282 178.065 15.7857 178.769L84.3048 155.127" fill="#FF0000"/>
<path d="M89.8993 150.542C100.598 140.005 87.7884 126.451 87.5981 126.145C93.4637 151.24 63.7663 144.215 74.0269 128.325C84.2875 112.436 80.6481 83.8457 80.6481 83.8457C78.9236 92.5951 63.651 103 63.651 103C36.4452 118.872 36.8432 132.242 38.6427 137.796C39.6578 137.45 40.7479 137.265 41.8783 137.265C47.444 137.265 51.9543 141.775 51.9543 147.341C51.9543 151.332 49.63 154.781 46.2675 156.414C46.2501 156.425 46.2328 156.431 46.2155 156.437C45.3677 156.84 44.4622 157.129 43.5048 157.285L43.5105 157.319C34.6054 158.79 22.2685 147.007 22.2685 147.007C21.7206 159.165 29.0685 165.371 31.5658 168.035C32.7309 169.281 33.6133 169.777 33.6133 169.777C31.2544 169.875 29.2588 169.656 27.5747 169.183C12.9653 165.134 18.0985 143.829 18.0985 143.829C2.99893 156.898 8.87035 167.078 12.2156 173.607C13.5767 176.26 15.1282 178.065 15.7857 178.769L84.3048 155.127" stroke="#FF0000" stroke-width="1.7237" stroke-miterlimit="10" stroke-linecap="round" stroke-linejoin="round"/>
<path d="M171.286 40.7271C168.806 41.2346 165.316 41.944 164.134 44.303C162.346 47.8789 164.699 49.6668 167.71 49.6668C168.731 49.6668 171.286 47.8789 171.286 44.303C171.286 44.303 175.438 46.2236 174.043 51.4317C173.074 55.0249 170.276 56.9167 165.979 60.0139C165.956 60.0254 165.922 60.0485 165.881 60.0716C161.7 62.5632 159.56 66.1795 158.781 67.5406C158.026 68.8556 155.892 72.6565 155.846 77.5935C155.765 85.7085 161.371 92.8546 167.721 96.1421C171.903 98.2992 175.704 98.4203 179.758 98.5472C187.222 98.7779 193.203 96.9842 196.836 95.5654C193.133 100.468 181.702 110.538 164.14 119.374C145.297 128.856 127.29 122.269 124.343 121.139C124.343 110.025 124.343 98.9164 124.343 87.8022C124.343 87.8022 99.479 71.3126 115.83 48.7498C115.83 48.7498 120.087 63.0534 132.176 62.8227C144.264 62.592 151.059 48.4326 137.124 38.7603C137.124 38.7603 144.38 26.0947 164.526 22.5245C184.24 19.0351 181.8 3.08194 181.69 2.40137C181.875 3.31842 187.983 34.325 171.291 38.9391C171.286 38.9391 167.71 40.7271 171.286 40.7271Z" fill="#FF0000" stroke="#FF0000" stroke-width="1.7237" stroke-miterlimit="10" stroke-linecap="round" stroke-linejoin="round"/>
<path d="M248.392 40.5249C250.872 41.0325 254.362 41.7419 255.544 44.1008C257.332 47.6767 254.979 49.4647 251.968 49.4647C250.947 49.4647 248.392 47.6767 248.392 44.1008C248.392 44.1008 244.24 46.0214 245.635 51.2296C246.604 54.8228 249.402 56.7146 253.698 59.8118C253.722 59.8233 253.756 59.8464 253.797 59.8694C257.978 62.361 260.118 65.9773 260.896 67.3385C261.652 68.6535 263.786 72.4543 263.832 77.3914C263.913 85.5064 258.307 92.6525 251.957 95.94C247.775 98.0971 243.974 98.2182 239.92 98.3451C232.456 98.5758 226.475 96.7821 222.842 95.3632C226.545 100.266 237.976 110.336 255.538 119.172C274.381 128.654 292.387 122.067 295.335 120.937C295.335 109.823 295.335 98.7142 295.335 87.6001C295.335 87.6001 320.199 71.1105 303.848 48.5476C303.848 48.5476 299.591 62.8513 287.502 62.6206C275.413 62.3899 268.619 48.2304 282.554 38.5582C282.554 38.5582 275.298 25.8925 255.152 22.3224C235.438 18.833 237.878 2.8798 237.988 2.19922C237.803 3.11627 231.695 34.1229 248.386 38.737C248.392 38.7427 251.968 40.5249 248.392 40.5249Z" fill="#FF0000" stroke="#FF0000" stroke-width="1.7237" stroke-miterlimit="10" stroke-linecap="round" stroke-linejoin="round"/>
<path d="M196.831 149.693L199.017 205.103C197.766 206.804 196.076 208.782 193.855 210.755C192.177 212.243 190.545 213.414 189.091 214.331C190.723 215.45 192.944 217.226 195.049 219.891C197.166 222.573 198.389 225.162 199.098 227.02C198.504 246.087 197.904 265.149 197.31 284.217L174.199 214.331L196.831 149.693Z" fill="#FF0000" stroke="#FF0000" stroke-width="1.7237" stroke-miterlimit="10" stroke-linecap="round" stroke-linejoin="round"/>
<path d="M222.923 149.693L220.737 205.103C221.989 206.804 223.678 208.782 225.899 210.755C227.577 212.243 229.21 213.414 230.663 214.331C229.031 215.45 226.81 217.226 224.705 219.891C222.588 222.573 221.366 225.162 220.656 227.02C221.25 246.087 221.85 265.149 222.444 284.217L245.555 214.331L222.923 149.693Z" fill="#FF0000" stroke="#FF0000" stroke-width="1.7237" stroke-miterlimit="10" stroke-linecap="round" stroke-linejoin="round"/>
<path d="M333.794 155.917L402.313 179.559C402.97 178.855 404.522 177.05 405.883 174.397C409.234 167.868 416.49 157.094 401.39 144.025C401.39 144.025 405.133 165.924 390.524 169.979C388.84 170.446 386.844 170.665 384.485 170.573C384.485 170.573 385.362 170.083 386.533 168.831C389.036 166.166 397.97 159.361 397.422 147.202C397.422 147.202 383.493 159.58 374.588 158.109L374.594 158.074C373.636 157.919 372.725 157.63 371.883 157.227C371.866 157.221 371.848 157.209 371.831 157.204C368.463 155.577 366.144 152.128 366.144 148.131C366.144 142.565 370.655 138.055 376.22 138.055C377.351 138.055 378.441 138.24 379.456 138.586C381.255 133.031 381.653 119.662 354.448 103.79C354.448 103.79 340.565 92.393 338.841 83.6436C338.841 83.6436 333.811 113.231 344.072 129.121C354.332 145.011 326.221 151.24 332.087 126.151C331.896 126.456 317.495 140.806 328.194 151.344" fill="#FF0000"/>
<path d="M333.794 155.917L402.313 179.559C402.97 178.855 404.522 177.05 405.883 174.397C409.234 167.868 416.49 157.094 401.39 144.025C401.39 144.025 405.133 165.924 390.524 169.979C388.84 170.446 386.844 170.665 384.485 170.573C384.485 170.573 385.362 170.083 386.533 168.831C389.036 166.166 397.97 159.361 397.422 147.202C397.422 147.202 383.493 159.58 374.588 158.109L374.594 158.074C373.636 157.919 372.725 157.63 371.883 157.227C371.866 157.221 371.848 157.209 371.831 157.204C368.463 155.577 366.144 152.128 366.144 148.131C366.144 142.565 370.655 138.055 376.22 138.055C377.351 138.055 378.441 138.24 379.456 138.586C381.255 133.031 381.653 119.662 354.448 103.79C354.448 103.79 340.565 92.393 338.841 83.6436C338.841 83.6436 333.811 113.231 344.072 129.121C354.332 145.011 326.221 151.24 332.087 126.151C331.896 126.456 317.495 140.806 328.194 151.344" stroke="#FF0000" stroke-width="1.7237" stroke-miterlimit="10" stroke-linecap="round" stroke-linejoin="round"/>
<path d="M213.459 214.021C210.506 209.614 209.681 205.064 209.456 202.019C209.231 205.064 208.407 209.614 205.454 214.021C204.808 214.984 204.133 215.838 203.452 216.593C204.127 217.435 204.808 218.393 205.454 219.471C208.407 224.408 209.231 229.507 209.456 232.91C209.681 229.501 210.506 224.403 213.459 219.471C214.105 218.393 214.78 217.435 215.46 216.593C214.785 215.838 214.105 214.984 213.459 214.021Z" fill="#FF0000" stroke="#FF0000" stroke-width="1.7237" stroke-miterlimit="10" stroke-linecap="round" stroke-linejoin="round"/>
<path d="M209.457 88.6041C209.03 86.7873 207.928 83.4133 204.923 79.9181C201.918 76.4172 198.515 74.56 196.785 73.8621C198.25 72.5356 199.657 71.0302 201.007 69.3519C207.236 61.6175 208.984 39.7295 209.457 34.3887C209.93 39.7295 211.677 61.6175 217.906 69.3519C219.267 71.0418 220.703 72.5413 222.128 73.8621C220.726 74.2024 216.176 75.5059 212.802 79.9181C210.12 83.4306 209.595 87.0584 209.457 88.6041Z" fill="#FF0000" stroke="#FF0000" stroke-width="1.7237" stroke-miterlimit="10" stroke-linecap="round" stroke-linejoin="round"/>
<path d="M214.237 11.9411C211.001 7.92112 210.096 3.77421 209.848 1C209.6 3.77421 208.694 7.92689 205.459 11.9411C205.453 11.9527 205.447 11.9584 205.436 11.97C204.328 13.3427 206.681 18.3374 209.929 18.3374C213.176 18.3374 215.367 13.3427 214.254 11.97C214.254 11.9584 214.243 11.9469 214.237 11.9411Z" fill="#FF0000" stroke="#FF0000" stroke-width="1.7237" stroke-miterlimit="10" stroke-linecap="round" stroke-linejoin="round"/>
<path d="M62.7457 180.707V226.185C62.7457 226.185 60.4329 225.458 56.9435 226.554C56.038 226.842 55.0575 227.246 54.0136 227.823C50.3223 229.859 45.8812 233.988 41.5613 242.19V197.866C41.5613 197.866 43.1474 194.624 46.1581 190.95L48.6324 188.211C52.1391 184.693 56.8858 181.405 62.7457 180.707ZM85.5392 417.409V279.95C85.5392 266.621 99.295 256.897 99.5834 256.695C99.4046 256.759 93.5793 258.766 85.5392 262.451C77.851 265.97 71.5528 271.426 67.5386 275.486C66.4427 276.593 65.5199 277.597 64.7874 278.428C63.4609 279.927 62.7457 280.873 62.7457 280.873V433.299C51.4643 423.512 41.5613 425.242 41.5613 425.242C41.5613 425.242 41.5613 341.773 41.5613 329.684C41.5613 317.595 52.4967 314.487 52.4967 314.487C41.6767 313.333 41.5613 308.384 41.5613 308.384V281.675C46.7637 271.812 53.581 263.749 60.3118 257.393C61.2404 256.516 62.1632 255.674 63.0802 254.867C75.1172 244.255 86.1218 239.185 86.1218 239.185C86.1218 239.185 87.2753 199.925 86.1218 196.701C84.9683 193.477 93.0314 186.342 93.0314 186.342C85.8911 181.849 85.8911 176.324 85.8911 176.324V152.838C96.6995 142.191 86.9292 126.82 86.9292 126.82C92.8007 151.921 59.7581 146.505 70.0186 130.621C80.2792 114.732 80.3657 84.1114 80.3657 84.1114C78.6412 92.8608 59.6427 105.296 59.6427 105.296C32.437 121.168 32.8349 134.538 34.6344 140.092C35.6495 139.746 36.7396 139.561 37.8701 139.561C43.4358 139.561 47.946 144.071 47.946 149.637C47.946 153.628 45.6275 157.077 42.2592 158.71C42.2419 158.721 42.2246 158.727 42.2073 158.733C41.3594 159.136 40.4482 159.425 39.4965 159.58L39.5023 159.615C30.5971 161.086 21.7092 147.693 21.7092 147.693C20.9018 165.538 29.5993 172.073 29.5993 172.073C6.80577 172.996 17.7527 144.637 17.7527 144.637C-5.38694 164.667 12.1004 181.393 12.1004 181.393C12.1004 181.393 13.4789 238.614 12.1004 247.133C10.7104 255.657 0 257.612 0 257.612C8.28804 260.375 12.0889 278.22 12.0889 278.22V361.227C9.67226 371.932 0.726717 374.545 0.726717 374.545C8.17269 376.771 12.0889 386.824 12.0889 386.824V444.811C12.0889 444.811 30.972 424.665 58.5988 463.233C86.2256 501.801 110.634 500.993 110.634 500.993C93.1006 488.847 105.178 450.117 105.288 449.766C102.998 453.272 99.0354 455.585 94.5367 455.585C87.4483 455.585 81.698 449.835 81.698 442.746C81.698 435.658 87.5464 428.708 94.5367 429.908C93.0602 428.858 91.0242 427.157 89.144 424.602C87.1253 421.856 86.0872 419.209 85.5392 417.409ZM198.002 310.253C198.036 310.253 196.179 251.666 196.179 235.182C196.179 220.331 180.174 215.578 180.174 215.578C181.512 215.117 185.97 213.271 188.866 211.149C191.848 208.963 196.07 205.462 196.369 204.072L196.416 96.3502C195.222 97.3423 189.662 100.324 189.691 100.491C185.492 102.902 181.079 104.892 175.958 104.892C162.906 104.892 152.322 94.3085 152.322 81.2564C152.322 73.4471 156.112 66.5202 161.954 62.2176C162.381 61.8139 162.877 61.439 163.465 61.0929C163.465 61.0929 168.829 57.517 168.829 55.729C168.829 55.3368 170.075 55.0312 170.617 53.9411C171.459 52.2454 170.721 50.5959 170.617 50.3652C169.244 52.3896 166.984 53.2778 164.705 53.2778C161.695 53.2778 159.255 50.8381 159.255 47.8274C159.255 45.1916 161.124 42.9999 163.604 42.4866H163.609C180.555 37.8033 181.005 6.84863 181.005 6.84863C181.005 6.84863 179.62 23.4247 159.474 26.9949C139.328 30.5823 132.078 43.2422 132.078 43.2422C146.007 52.9144 139.218 67.0739 127.129 67.3046C115.041 67.5353 115.156 49.4597 115.156 49.4597C98.8105 72.0225 119.303 92.2898 119.303 92.2898V199.59C119.303 199.59 117.584 211.448 108.835 214.326C108.835 214.326 119.88 219.05 119.303 231.024C118.726 242.997 119.303 346.727 119.303 348.683C119.303 350.644 119.303 372.399 119.303 372.399C119.303 372.399 119.418 380.572 111.015 379.309C111.015 379.309 111.101 381.956 112.18 384.603C113.258 387.251 115.329 389.898 119.303 389.898C113.795 429.354 157.069 447.089 157.386 447.222C157.225 446.922 138.209 411.774 143.711 404.178C143.711 404.178 143.717 404.179 143.74 404.173C145.263 400.856 148.614 398.555 152.501 398.555C155.223 398.555 157.68 399.686 159.428 401.502C159.405 401.087 154.041 388.773 147.524 383.577L147.005 350.171C153.568 329.448 195.424 361.498 195.424 361.498C195.856 350.782 196.018 329.921 196.018 329.921C174.949 308.852 146.56 311.493 146.56 311.493L147.028 207.982C145.989 195.663 155.431 194.861 155.431 194.861C149.335 189.682 147.028 178.631 147.028 178.631V131.308C150.298 131.856 154.479 132.882 159.047 134.889C164.867 137.439 167.197 140.634 170.086 143.143C170.121 146.915 170.369 174.576 170.467 201.194C170.508 211.506 170.525 221.657 170.496 230.205L170.565 294.571L172.543 294.577C190.129 296.076 197.367 309.186 198.002 310.253ZM246.282 294.571L248.26 294.565L248.33 230.199C248.307 221.651 248.318 211.5 248.359 201.188C248.462 174.57 248.705 146.909 248.739 143.137C251.623 140.628 253.959 137.433 259.778 134.884C264.346 132.882 268.528 131.856 271.798 131.302V178.619C271.798 178.619 269.497 189.67 263.395 194.849C263.395 194.849 272.836 195.657 271.798 207.971L272.265 311.482C272.265 311.482 243.877 308.84 222.808 329.909C222.808 329.909 222.975 350.771 223.402 361.487C223.402 361.487 265.258 329.43 271.821 350.159L271.302 383.565C264.79 388.762 259.427 401.081 259.398 401.491C261.145 399.674 263.602 398.544 266.325 398.544C270.212 398.544 273.557 400.845 275.086 404.161C275.103 404.167 275.114 404.167 275.114 404.167C280.617 411.763 261.601 446.911 261.439 447.211C261.757 447.084 305.031 429.348 299.523 389.886C303.491 389.886 305.567 387.239 306.646 384.592C307.724 381.944 307.811 379.297 307.811 379.297C299.408 380.56 299.523 372.387 299.523 372.387C299.523 372.387 299.523 350.632 299.523 348.671C299.523 346.71 300.1 242.986 299.523 231.012C298.946 219.039 309.991 214.315 309.991 214.315C301.236 211.437 299.523 199.579 299.523 199.579V92.2898C299.523 92.2898 320.015 72.0283 303.67 49.4597C303.67 49.4597 303.785 67.5353 291.696 67.3046C279.607 67.0739 272.813 52.9144 286.748 43.2422C286.748 43.2422 279.492 30.5765 259.346 27.0122C239.2 23.442 237.815 6.86594 237.815 6.86594C237.815 6.86594 238.265 37.8206 255.21 42.5039H255.216C257.696 43.0115 259.565 45.2089 259.565 47.8447C259.565 50.8554 257.125 53.2951 254.115 53.2951C251.836 53.2951 249.576 52.4069 248.203 50.3825C248.099 50.6132 247.361 52.2627 248.203 53.9584C248.745 55.0485 249.991 55.3541 249.991 55.7463C249.991 57.5343 255.355 61.1102 255.355 61.1102C255.943 61.4563 256.439 61.8254 256.866 62.2349C262.708 66.5375 266.498 73.4644 266.498 81.2737C266.498 94.3258 255.914 104.909 242.862 104.909C237.74 104.909 233.328 102.925 229.129 100.509C229.158 100.341 223.598 97.3596 222.404 96.3675L222.451 204.089C222.75 205.479 226.972 208.98 229.954 211.166C232.844 213.283 237.302 215.134 238.646 215.595C238.646 215.595 222.641 220.348 222.641 235.199C222.641 251.683 220.784 310.27 220.818 310.27C221.453 309.186 228.697 296.076 246.282 294.571ZM370.188 188.211L372.662 190.95C375.678 194.624 377.259 197.866 377.259 197.866V242.19C372.939 233.988 368.498 229.859 364.806 227.823C363.762 227.246 362.782 226.842 361.876 226.554C358.387 225.458 356.074 226.185 356.074 226.185V180.707C361.94 181.405 366.687 184.693 370.188 188.211ZM329.676 424.607C327.796 427.162 325.76 428.864 324.283 429.914C331.268 428.714 337.122 435.664 337.122 442.752C337.122 449.841 331.372 455.591 324.283 455.591C319.784 455.591 315.828 453.278 313.532 449.771C313.642 450.123 325.719 488.847 308.186 500.999C308.186 500.999 332.594 501.807 360.221 463.239C387.854 424.671 406.731 444.817 406.731 444.817V386.824C406.731 386.824 410.647 376.771 418.093 374.545C418.093 374.545 409.153 371.938 406.731 361.227V278.226C406.731 278.226 410.532 260.381 418.82 257.618C418.82 257.618 408.109 255.663 406.731 247.144C405.353 238.625 406.731 181.405 406.731 181.405C406.731 181.405 424.218 164.679 401.079 144.648C401.079 144.648 412.031 173.002 389.232 172.085C389.232 172.085 397.93 165.55 397.122 147.705C397.122 147.705 388.234 161.097 379.329 159.627L379.335 159.592C378.378 159.436 377.466 159.148 376.624 158.744C376.607 158.738 376.59 158.727 376.572 158.721C373.204 157.095 370.885 153.64 370.885 149.649C370.885 144.089 375.396 139.573 380.961 139.573C382.092 139.573 383.182 139.757 384.197 140.103C385.991 134.549 386.394 121.18 359.189 105.307C359.189 105.307 340.196 92.8724 338.466 84.1229C338.466 84.1229 338.552 114.749 348.813 130.633C359.073 146.523 326.031 151.933 331.902 126.832C331.902 126.832 322.126 142.203 332.94 152.85V176.335C332.94 176.335 332.94 181.861 325.8 186.354C325.8 186.354 333.857 193.494 332.71 196.712C331.556 199.936 332.71 239.196 332.71 239.196C332.71 239.196 343.708 244.26 355.751 254.878C356.668 255.686 357.591 256.528 358.52 257.405C365.25 263.755 372.062 271.824 377.27 281.686V308.396C377.27 308.396 377.155 313.345 366.335 314.498C366.335 314.498 377.27 317.607 377.27 329.696C377.27 341.785 377.27 425.253 377.27 425.253C377.27 425.253 367.367 423.529 356.086 433.311V280.873C356.086 280.873 355.371 279.927 354.044 278.428C353.312 277.597 352.383 276.593 351.293 275.486C347.279 271.426 340.98 265.97 333.292 262.451C325.252 258.772 319.433 256.759 319.248 256.695C319.536 256.897 333.292 266.621 333.292 279.95V417.409C332.738 419.209 331.7 421.856 329.676 424.607Z" fill="#1B1B1C"/>
</svg>
